<?xml version="1.0" encoding="iso-8859-1"?>
<!-- Generator: Adobe Illustrator 17.1.0, SVG Export Plug-In . SVG Version: 6.00 Build 0)  -->
<!DOCTYPE svg PUBLIC "-//W3C//DTD SVG 1.1//EN" "http://www.w3.org/Graphics/SVG/1.1/DTD/svg11.dtd">
<svg xmlns="http://www.w3.org/2000/svg" xmlns:xlink="http://www.w3.org/1999/xlink" version="1.1" id="Capa_1" x="0px" y="0px" viewBox="0 0 460 460" style="enable-background:new 0 0 460 460;" xml:space="preserve" width="512px" height="512px">
<g>
	<path stroke="white" stroke-width="13" d="M433.702,192.485c-4.695-6.208-10.925-10.863-18.006-13.549c-5.232-50.527-26.754-95.944-61.04-128.505   C320.412,17.91,276.142,0,230,0s-90.412,17.91-124.656,50.432c-34.286,32.561-55.808,77.977-61.04,128.505   c-7.08,2.686-13.311,7.34-18.006,13.549c-6.516,8.615-9.164,19.038-7.458,29.349l11.367,68.688   c2.984,18.036,17.826,31.354,35.801,32.551c5.559,19.014,20.026,68.214,25.539,84.19c7.518,21.783,25.911,36.841,54.669,44.754   c2.523,0.694,5.113,1.313,7.735,1.894c0.135,0.034,0.266,0.076,0.404,0.104c0.065,0.014,0.131,0.018,0.196,0.03   C178.362,459.229,205.793,460,230,460c24.21,0,51.646-0.771,75.459-5.958c0.063-0.012,0.126-0.016,0.19-0.029   c0.135-0.027,0.262-0.069,0.394-0.102c2.624-0.581,5.217-1.2,7.742-1.895c28.758-7.913,47.151-22.971,54.669-44.755   c5.513-15.976,19.98-65.176,25.539-84.189c17.974-1.197,32.816-14.516,35.801-32.55l11.366-68.688   C442.866,211.523,440.218,201.101,433.702,192.485z M168.214,436.221l23.502-114.552c0.777-3.789-0.7-7.687-3.794-10.009   l-95.845-71.92l27.188-95.167l18.889,32.804c1.132,1.966,2.898,3.488,5.01,4.317l83.18,32.677c2.35,0.924,4.963,0.924,7.313,0   l83.181-32.677c2.111-0.829,3.878-2.352,5.01-4.317l18.888-32.803l27.188,95.166l-95.844,71.919   c-3.094,2.322-4.571,6.22-3.794,10.009L291.79,436.22C273.153,439.254,251.771,440,230,440   C208.23,440,186.849,439.254,168.214,436.221z M421.428,218.568l-11.367,68.689c-1.228,7.423-6.576,13.199-13.479,15.167v-8.465   c0-5.522-4.478-10-10-10s-10,4.478-10,10v17.379c-2.911,9.988-20.96,71.794-27.035,89.398   c-5.449,15.791-19.421,25.349-38.245,31.074l-22.151-107.957l96.28-72.246c3.314-2.487,4.752-6.762,3.613-10.746L353.475,116.36   c-1.104-3.862-4.41-6.689-8.397-7.179c-3.979-0.487-7.88,1.454-9.884,4.936l-28.931,50.243L230,194.319l-76.262-29.959   l-28.932-50.243c-2.004-3.479-5.894-5.421-9.884-4.936c-3.987,0.489-7.294,3.316-8.397,7.179L70.956,240.862   c-1.139,3.984,0.299,8.259,3.613,10.746l96.281,72.247l-22.149,107.957c-18.826-5.726-32.799-15.283-38.248-31.074   c-6.075-17.604-24.125-79.412-27.035-89.399V293.96c0-5.522-4.478-10-10-10s-10,4.478-10,10v8.465   c-6.902-1.968-12.25-7.744-13.479-15.168l-11.367-68.688c-0.802-4.844,0.504-9.823,3.678-14.019   c3.188-4.216,7.939-7.117,13.045-7.962c6.035-1.003,8.9-6.275,8.533-10.728c-0.012-0.142-0.026-0.282-0.044-0.423   C72.192,82.76,148.445,25.282,220,20.352v15.305h-5c-5.522,0-10,4.478-10,10s4.478,10,10,10h5v15.657h-5c-5.522,0-10,4.478-10,10   s4.478,10,10,10h5v15.656h-5c-5.522,0-10,4.478-10,10s4.478,10,10,10h5v15.657h-5c-5.522,0-10,4.478-10,10s4.478,10,10,10h30   c5.522,0,10-4.478,10-10s-4.478-10-10-10h-5V126.97h5c5.522,0,10-4.478,10-10s-4.478-10-10-10h-5V91.313h5c5.522,0,10-4.478,10-10   s-4.478-10-10-10h-5V55.656h5c5.522,0,10-4.478,10-10s-4.478-10-10-10h-5V20.352c71.555,4.931,147.808,62.409,156.216,165.086   c-0.018,0.141-0.032,0.281-0.044,0.423c-0.367,4.452,2.498,9.725,8.542,10.729c5.097,0.843,9.849,3.744,13.036,7.96   C420.924,208.745,422.23,213.725,421.428,218.568z" fill="#FFFFFF"/>
	<path d="M211.636,227.873l-84.368-35.386c-2.958-1.239-6.33-0.986-9.067,0.68c-2.739,1.667-4.513,4.546-4.769,7.742   c-2.015,25.106,12.24,48.521,35.472,58.265c7.176,3.01,14.731,4.535,22.457,4.535c16.887,0,32.91-7.313,43.964-20.064   c2.1-2.423,2.911-5.705,2.181-8.827S214.592,229.113,211.636,227.873z M171.361,243.709c-5.056,0-10.009-1.002-14.722-2.979   c-10.446-4.382-18.127-12.977-21.499-23.253l53.137,22.286C183.078,242.331,177.301,243.709,171.361,243.709z" fill="#FFFFFF"/>
	<path d="M312.156,259.602c23.6-9.898,38.082-33.686,36.036-59.192c-0.256-3.195-2.029-6.075-4.768-7.742   c-2.738-1.666-6.108-1.92-9.068-0.68l-85.991,36.066c-2.956,1.24-5.139,3.822-5.869,6.944s0.081,6.404,2.181,8.827   c11.229,12.954,27.509,20.384,44.664,20.384C297.189,264.209,304.865,262.659,312.156,259.602z M326.569,216.941   c-3.385,10.703-11.314,19.673-22.149,24.217c-4.827,2.024-9.9,3.051-15.079,3.051c-6.228,0-12.28-1.479-17.702-4.229   L326.569,216.941z" fill="#FFFFFF"/>
</g>
<g>
</g>
<g>
</g>
<g>
</g>
<g>
</g>
<g>
</g>
<g>
</g>
<g>
</g>
<g>
</g>
<g>
</g>
<g>
</g>
<g>
</g>
<g>
</g>
<g>
</g>
<g>
</g>
<g>
</g>
</svg>
